inDegrees=no
num_controls=7
num_derivatives=13
num_iterations=141
num_multipliers=7
num_parameters=0
num_slacks=7
num_states=26
objective=0.516778
objective_accelerations=0.039230
objective_balance=0.002207
objective_effort=0.043543
objective_height=0.420147
objective_ligament=0.011651
solver_duration=1864.151858
status=Solve_Succeeded
success=true
DataType=double
version=3
OpenSimVersion=4.5
endheader
time	/jointset/ground_pelvis/pelvis_tilt/value	/jointset/ground_pelvis/pelvis_tx/value	/jointset/ground_pelvis/pelvis_ty/value	/jointset/hip_l/hip_flexion_l/value	/jointset/hip_l/hip_adduction_l/value	/jointset/hip_l/hip_rotation_l/value	/jointset/back/lumbar_extension/value	/jointset/patellofemoral_l/patellar_flexion_l/value	/jointset/knee_l/knee_flexion_l/value	/jointset/knee_l/knee_adduction_l/value	/jointset/knee_l/knee_rotation_l/value	/jointset/ankle_l/ankle_angle_l/value	/jointset/subtalar_l/subtalar_angle_l/value	/jointset/ground_pelvis/pelvis_tilt/speed	/jointset/ground_pelvis/pelvis_tx/speed	/jointset/ground_pelvis/pelvis_ty/speed	/jointset/hip_l/hip_flexion_l/speed	/jointset/hip_l/hip_adduction_l/speed	/jointset/hip_l/hip_rotation_l/speed	/jointset/back/lumbar_extension/speed	/jointset/patellofemoral_l/patellar_flexion_l/speed	/jointset/knee_l/knee_flexion_l/speed	/jointset/knee_l/knee_adduction_l/speed	/jointset/knee_l/knee_rotation_l/speed	/jointset/ankle_l/ankle_angle_l/speed	/jointset/subtalar_l/subtalar_angle_l/speed	/forceset/tau_hip_flexion_l	/forceset/tau_hip_adduction_l	/forceset/tau_hip_rotation_l	/forceset/tau_knee_flexion_l	/forceset/tau_ankle_angle_l	/forceset/tau_subtalar_angle_l	/forceset/tau_lumbar_extension	lambda_cid13_p0	lambda_cid13_p1	lambda_cid13_p2	lambda_cid13_p3	lambda_cid13_p4	lambda_cid13_p5	lambda_cid14_p0	/jointset/ground_pelvis/pelvis_tilt/accel	/jointset/ground_pelvis/pelvis_tx/accel	/jointset/ground_pelvis/pelvis_ty/accel	/jointset/hip_l/hip_flexion_l/accel	/jointset/hip_l/hip_adduction_l/accel	/jointset/hip_l/hip_rotation_l/accel	/jointset/back/lumbar_extension/accel	/jointset/patellofemoral_l/patellar_flexion_l/accel	/jointset/knee_l/knee_flexion_l/accel	/jointset/knee_l/knee_adduction_l/accel	/jointset/knee_l/knee_rotation_l/accel	/jointset/ankle_l/ankle_angle_l/accel	/jointset/subtalar_l/subtalar_angle_l/accel	gamma_cid13_p0	gamma_cid13_p1	gamma_cid13_p2	gamma_cid13_p3	gamma_cid13_p4	gamma_cid13_p5	gamma_cid14_p0
0.5	-0.1196711914384303	-0.05618650801668965	0.8257901311700034	0.8858055563549094	-0.3238267850011216	-0.1250736660532313	-0.778747117983368	0.78014595058101	0.7801459505810381	-0.1104785064723306	-0.174532322846416	0.06742804103722679	-0.008249765773171	-0.2036720323376014	-0.2064472088109422	-0.3341139779461243	1.477487755202088	-0.04147636578153974	0.452495750962276	-0.8392643177228918	1.41823052788803	1.418230527888022	0.1299612127093555	-2.004525480442311e-06	0.2343147500146357	0.02886236603479939	-0.2815222667295506	0.01656979604617888	-0.003026442038386199	-0.2087764619029812	0.114568529788548	0.05326074374770478	0.3297554262103048	-7.643866352111757	-23.30502154469813	4.988522158059807	-9.636718868883211	-703.3085834389739	-80.53449731796755	-15.19870737907425	0.2895882074807637	0.6498384594589548	-0.116306696782358	-1.41229939882096	0.2204881818125651	-0.3314619260719697	1.696203716024916	-1.042928316327158	-1.042928316327147	-0.2696763446105259	0.02425843863833208	0.03799684036300746	0.2535236360993071	-3.433805820327134e-08	-5.167974913404384e-07	-5.402301105431768e-08	-7.377417682273753e-08	-6.11224071932022e-08	-4.928225286996751e-08	-6.733990425266624e-08
0.51	-0.1216931957777512	-0.05821837249964466	0.8224438939757682	0.9005077091695023	-0.3242308419192565	-0.1205668152236029	-0.7870540154278821	0.7942739312896414	0.7942739312896481	-0.1091924925212905	-0.1745322210171321	0.069772445084677	-0.00794898532292586	-0.2006998077293913	-0.1999146028270662	-0.3350590706956815	1.462736247515654	-0.03933445194935943	0.4488018052977412	-0.8220264862413246	1.407155640969485	1.407155640969481	0.1272475248319782	1.194223958864923e-05	0.2345199835753157	0.03128175535836277	-0.2878460220114818	0.01693817443108719	-0.003231935930340438	-0.2113308463983417	0.1149674324590358	0.05360791783000657	0.3358540368251176	-7.73410128054118	-23.39704663890528	4.954130680707993	-9.708091633154469	-707.1462583896086	-80.40830727464379	-14.68400359504155	0.3053917174591777	0.6566203003188926	-0.07246353204866704	-1.537562265479741	0.2111969119398426	-0.3993093885950751	1.750875604997531	-1.171251712580585	-1.171251712580022	-0.2714125642333012	-0.01159815074903789	0.004857355333131677	0.2344339172554617	-5.436994744909365e-08	-4.09301676925561e-07	1.121126237752259e-07	-4.356993209922271e-08	-7.321435953828217e-08	-4.049559961142534e-08	-7.455008219839322e-08
0.52	-0.1236846074449961	-0.06018458119626748	0.8190904352604365	0.9150561497448457	-0.3246134489134661	-0.11609909355101	-0.7951858740094256	0.8082848665624948	0.80828486656248	-0.1079334549600096	-0.1745322919094393	0.07211751561601652	-0.007624353512090966	-0.1975534979224611	-0.1933160515445049	-0.3355582821654898	1.446745307352216	-0.03718638099641557	0.4446699195551723	-0.8042565451287622	1.394821440732442	1.394821440732441	0.1245659347573219	-3.654884295187056e-05	0.2344480467925014	0.03363263815275043	-0.2941697772934132	0.01730655281599489	-0.003437429822290714	-0.2138852308937025	0.1153663351295233	0.05395509191230782	0.3419526474399303	-7.827487968810341	-23.48935032684199	4.920732169533064	-9.805100916392144	-711.0558110555247	-80.30091338097699	-14.16630905566103	0.3244052472247694	0.6630275191960104	-0.02713044083258054	-1.660185894221857	0.2217196059652719	-0.4190499416788145	1.802625642223948	-1.294790980026975	-1.294790980026985	-0.2632567840663223	0.01177086911640745	-0.01743722833582701	0.2398223302641648	-9.515214072510501e-08	-2.491350089929774e-07	4.202904927201031e-07	1.094601188141265e-08	-1.049759632587221e-07	-2.860167484026329e-08	-9.286165531636529e-08
0.53	-0.1256436749197335	-0.06208455956088592	0.8157342226013902	0.9294385254354348	-0.3249747580302744	-0.1116734690485682	-0.8031375233887987	0.8221661507452752	0.8221661507452501	-0.1067022906315738	-0.174532286800829	0.07446038072980486	-0.007276843352314813	-0.1942315403277246	-0.1866773080608876	-0.3356086825445349	1.429532306817328	-0.03507715790526136	0.4403863921727717	-0.7859978897183949	1.381229333684187	1.38122933368418	0.1216698619170516	2.792089093587953e-05	0.2340739486342451	0.03585304412808942	-0.3004091008358793	0.01766369174435331	-0.003642337809702177	-0.216215412463122	0.115258591307176	0.05429070755304683	0.347888249195802	-8.08146339537115	-23.54977653237398	4.883690825282121	-9.681233699744062	-714.8561062412834	-80.156107469885	-13.6462377047161	0.3403472372029017	0.6646526768505827	0.01731589668053029	-1.781501003906741	0.2052074480700934	-0.4433885068980076	1.848801644547289	-1.422309392177216	-1.422309392178102	-0.302353748697061	0.002455189948524015	-0.05505364594604076	0.2106556657926136	-1.145014598510217e-07	-1.404155932405741e-07	5.874436680517104e-07	4.25156047875189e-08	-1.17583864032072e-07	-1.601128251838654e-08	-9.971407605659992e-08
0.54	-0.1275686715742021	-0.06391807950788696	0.8123797680851779	0.9436428423465184	-0.3253150381586954	-0.1072927566940256	-0.8109043229832473	0.8359053360925828	0.8359053360925466	-0.1055000012744789	-0.1745319029619971	0.07679797335473555	-0.006907627945860503	-0.1907393338687975	-0.1800243680210251	-0.3352066535987406	1.41113355145106	-0.03298058331892323	0.4356874899752777	-0.7672865881438621	1.366401673637833	1.366401673637821	0.1187909404891943	3.919720176596727e-05	0.2333935490209686	0.0379736874883823	-0.3066484243783452	0.01802083067271185	-0.003847245797116363	-0.2185455940325414	0.1151508474848285	0.05462632319378586	0.353823850951674	-8.338951915291114	-23.61053821628656	4.847789241660729	-9.587713453382813	-718.7364443780885	-80.04769972096565	-13.12454245776381	0.3584550200628478	0.6658668304450367	0.06335542413527175	-1.897336860497975	0.219189905002051	-0.5021249046974992	1.893154875057035	-1.541901579646646	-1.541901579646643	-0.2598265015837111	0.001132184504864743	-0.07869751933986548	0.2198698072549428	-1.101378118321524e-07	-8.861654160241373e-08	5.985695227899106e-07	4.869774544095433e-08	-1.090004338852368e-07	-2.650330353165871e-09	-9.388828565550787e-08
0.55	-0.1294579766712397	-0.0656850332200523	0.8090316134915528	0.9576573487943872	-0.3256344136283755	-0.1029607666648603	-0.8184818340624526	0.8494900918145339	0.8494900918145211	-0.1043265855976785	-0.1745314048630465	0.07912725619693219	-0.006517701999728643	-0.1870986587781918	-0.1733670959142923	-0.3343461116955798	1.391572330111114	-0.03090210019434386	0.4306544199529874	-0.7481521739287829	1.350341264624087	1.350341264624067	0.1158791774227713	5.704642355298616e-05	0.2324115228256674	0.03998824921222024	-0.3125464948316872	0.0182026033711806	-0.004036864991419491	-0.2211328366477975	0.1153075955737032	0.05484554792317978	0.3594662818735355	-8.51229449400013	-23.6324579983191	4.802237530555394	-9.496470109967472	-722.5370573092126	-79.90755912919602	-12.60207456712382	0.3703156946495319	0.6655595894447074	0.109105724302594	-2.014840955785627	0.2009633606088298	-0.5123972103214965	1.933102759978047	-1.669323339370939	-1.66932333937212	-0.3087970319756358	0.001725119648697327	-0.1156786333819766	0.1887004552844468	-1.043421552563685e-07	-4.803264855456e-08	5.96151197149139e-07	5.189667817172442e-08	-9.913878138256195e-08	9.229565094479515e-09	-8.787789799938966e-08
0.5600000000000001	-0.131310186629153	-0.06738543377341881	0.8056944047471386	0.9714703777918483	-0.3259332470979254	-0.09868080716778306	-0.825866097386458	0.8629080008909212	0.8629080008909313	-0.1031826767161027	-0.1745308055061509	0.08144517408442446	-0.00610834021629116	-0.1833203060439836	-0.1667137362612622	-0.3330174837565744	1.370838061369459	-0.02887218329284637	0.4252813835576293	-0.7286370371039179	1.333032344525047	1.333032344525019	0.1128895814441869	5.944879066295479e-05	0.2311205580800971	0.04186085494950727	-0.3184445652850291	0.01838437606964944	-0.004226484185721175	-0.2237200792630536	0.1154643436625777	0.05506477265257372	0.365108712795397	-8.690015296803738	-23.65452576341312	4.757754566209055	-9.432851768779651	-726.4290022388016	-79.80336260493354	-12.07981004281928	0.3859905487833283	0.6650843397044807	0.1569726313042152	-2.131946340839769	0.2094766603856715	-0.5701181793110461	1.969299397014152	-1.791603796705286	-1.79160379670532	-0.2753930840159738	-0.001957186430557021	-0.1404852293936815	0.1914786099447624	-9.682808841228736e-08	-2.09069458150738e-08	5.774798550536018e-07	5.151576139529621e-08	-8.774326205287965e-08	1.933219248103461e-08	-8.164599363724007e-08
0.5700000000000001	-0.1331239597824235	-0.06901937811521731	0.8023728133475856	0.9850703790414536	-0.3262119629184622	-0.09445622135869915	-0.8330534111022748	0.8761467348581017	0.8761467348581206	-0.1020689037991212	-0.1745301786546903	0.0837486969211414	-0.005680880156434164	-0.1794122623437364	-0.1600812222320253	-0.3312229221215882	1.348976729138515	-0.02687909657477955	0.4195788637193424	-0.7087755309254957	1.314516672987615	1.314516672987584	0.1098580486012231	6.212218050827819e-05	0.2295350469701662	0.04360795491515674	-0.3241069431329773	0.01854608313162351	-0.004389684954714259	-0.2262294896199983	0.1154378016126524	0.05517368680993771	0.3704800547570665	-8.920254471282938	-23.61811529003309	4.702377769993991	-9.254327788187247	-730.1172555137668	-79.61210911567638	-11.55878194416555	0.3965096896943405	0.6614316745829882	0.2023627750047401	-2.241058976281376	0.1929296755085036	-0.5789281354001437	2.002102498336545	-1.911199596606032	-1.911199596606467	-0.3180626002368843	0.0009219067460326366	-0.1749249997689173	0.1627799206722096	-8.882799085075339e-08	4.81638346864542e-09	5.548394501715263e-07	5.067870245749038e-08	-7.635081291421143e-08	2.828224323103351e-08	-7.502007298102786e-08
0.58	-0.1348979928168815	-0.0705871779687135	0.7990715005334643	0.9984462005063377	-0.3264710068722202	-0.09029038259786037	-0.8400406045022913	0.8891943819570391	0.8891943819570665	-0.1009856520537289	-0.1745296166083197	0.08603489645716376	-0.005236658250761242	-0.175372282281534	-0.1534848386007961	-0.3289617666702456	1.326002104425186	-0.02493780993706002	0.4135319739085499	-0.6886129739438634	1.294814970876431	1.294814970876397	0.1067853471262473	4.648777251183252e-05	0.2276558979411905	0.04521322411269307	-0.3297693209809253	0.01870779019359773	-0.004552885723705784	-0.228738899976943	0.1154112595627271	0.05528260096730183	0.3758513967187361	-9.155668128308044	-23.58162112373565	4.647927398633218	-9.099451204664213	-733.9061084555857	-79.45544705764894	-11.04004288865102	0.412377821174352	0.6578582601029507	0.2502913945754751	-2.354604837316658	0.1991166443162097	-0.6389921738121992	2.029509557656163	-2.028809911455526	-2.028809911455551	-0.2836268104183907	-0.005618745998919652	-0.1992128132026259	0.163112456322135	-8.019492305253684e-08	2.87133659262493e-08	5.270300332883784e-07	4.924759791416954e-08	-6.496236216384077e-08	3.573126394272661e-08	-6.788101482557138e-08
0.59	-0.13663099609943	-0.07208923050543031	0.7957951130797236	1.01158688765365	-0.3267108293859345	-0.08618666004367723	-0.846824754082674	0.9020392821644192	0.902039282164427	-0.09993318003464211	-0.1745292031428828	0.08830094109031106	-0.004776988314977878	-0.1712066305292073	-0.1469349367246186	-0.3262391834194285	1.301959869512846	-0.02303578871776302	0.4071602934328328	-0.668178333005362	1.273982575266559	1.273982575266534	0.103704523429937	3.465373360574212e-05	0.2255110829793757	0.04669855400037792	-0.3351407789294764	0.01879587726171004	-0.004688967441074773	-0.2312197503680943	0.1153357844274512	0.05530398863126428	0.3809199874362631	-9.395665863933772	-23.50504279091401	4.585636809082105	-8.893716227348364	-737.4471736336453	-79.24443671877785	-10.5248714854412	0.4219109888432944	0.6521756359279645	0.2947112310371869	-2.45536255124677	0.1843045263808381	-0.6441502072514756	2.056232731026655	-2.137815946002059	-2.137815946000758	-0.3209705942057209	0.0009021257030778506	-0.2284022761133205	0.1378452179028196	-7.149297517744503e-08	5.05105688923863e-08	4.972084351084204e-07	4.748301642092839e-08	-5.397684107070079e-08	4.206716883208083e-08	-6.072005704904421e-08
